<?xml version="1.0" encoding="iso-8859-1"?>
<!-- Generator: Adobe Illustrator 19.0.1, SVG Export Plug-In . SVG Version: 6.00 Build 0)  -->
<svg version="1.1" id="Capa_1" xmlns="http://www.w3.org/2000/svg" xmlns:xlink="http://www.w3.org/1999/xlink" x="0px" y="0px"
	 viewBox="-25 165 464 440.29" style="enable-background:new -25 165 464 440.29;" xml:space="preserve">
<g>
	<polygon style="fill:#E6E6E6;" points="439,346.69 388.66,397.03 383,391.38 433.34,341.03 	"/>
</g>
<g>
	<path style="fill:#E6E6E6;" d="M389.83,430.17l-83.22-83.21l4.06-2.71c5.43-3.63,10.53-7.81,15.16-12.43L351,306.66l-5.66-5.66
		l-25.17,25.17c-35.94,35.86-94.41,35.86-130.34,0.01l-12-12.01c-1.5-1.49-3.9-1.56-5.48-0.16l-21.28,18.9
		c-24.36,21.62-60.78,22.91-86.62,3.09l-3.74-2.87l111.18-104.22c8.16-7.68,18.82-11.91,30.03-11.91h94.46
		c5.3,0.01,10.43-2.12,14.14-5.85l40.49-40.49l-5.66-5.66l-40.49,40.48c-2.27,2.27-5.28,3.52-8.49,3.52H201.9
		c-13.25,0-25.85,4.99-35.5,14.07L52.26,330.09c-1.6,1.5-1.68,4.04-0.17,5.65l0.09,0.1c28.41,28.35,74.19,29.68,104.21,3.02
		l18.44-16.38l9.34,9.33c29.44,29.45,74.63,37.55,112.45,20.15l2.54-1.17l85.01,85.04c4.56,4.7,6.99,10.84,6.89,17.33
		c-0.1,6.48-2.73,12.54-7.39,17.06c-9.47,9.18-24.32,9.18-33.8,0L332.66,453l-5.66,5.66l17.17,17.17c9.46,9.47,9.46,24.87,0,34.34
		l-0.07,0.07c-9.59,9.13-24.61,9.13-34.2,0L292.66,493l-5.66,5.66l17.17,17.17c9.46,9.47,9.46,24.87,0,34.34l-0.07,0.07
		c-9.59,9.13-24.61,9.13-34.2,0L252.66,533l-5.66,5.66l17.17,17.17c9.46,9.47,9.46,24.87,0,34.34l-0.07,0.07
		c-9.59,9.13-24.61,9.13-34.2,0l-17.26-17.25l2.52-2.82c5.7-6.38,8.57-14.59,8.09-23.12c-0.48-8.54-4.26-16.37-10.63-22.07
		c-6.89-6.15-16.09-9.03-25.26-7.89l-5.09,0.63l0.63-5.1c1.06-8.43-1.24-16.78-6.46-23.49c-5.23-6.71-12.75-10.99-21.19-12.04
		c-2.62-0.33-5.27-0.33-7.88,0l-5.1,0.64l0.63-5.11c1.06-8.43-1.24-16.78-6.46-23.49c-5.23-6.71-12.75-10.99-21.19-12.04
		c-2.62-0.33-5.27-0.33-7.88,0l-5.1,0.63l0.63-5.09c1.05-8.48-1.27-16.87-6.53-23.6c-5.26-6.74-12.83-11.03-21.31-12.08
		c-9.15-1.13-18.35,1.75-25.23,7.89l-2.82,2.52L-19.34,341l-5.66,5.66L41.34,413l-17.17,17.17c-6.1,6.09-9.46,14.19-9.46,22.81
		c-0.01,8.62,3.35,16.73,9.44,22.82c6.08,6.09,14.17,9.45,22.77,9.46c1.2-0.05,2.42-0.16,3.61-0.34l5.21-0.79l-0.64,5.23
		c-1.04,8.48,1.28,16.87,6.54,23.6c5.26,6.74,12.83,11.02,21.31,12.07c1.31,0.16,2.65,0.24,3.96,0.23c1.21-0.05,2.43-0.16,3.62-0.34
		l5.21-0.79l-0.64,5.23c-1.04,8.48,1.28,16.87,6.54,23.6c5.26,6.74,12.83,11.02,21.31,12.07c1.31,0.16,2.64,0.19,3.96,0.23
		c1.21-0.05,2.43-0.16,3.62-0.34l5.18-0.78l-0.61,5.2c-2.07,17.62,10.58,33.64,28.2,35.71c9.85,1.16,19.52-2.2,26.53-9.22
		L207,578.66l17.17,17.17c6.1,6.1,14.2,9.46,22.82,9.46H247c8.62,0,16.72-3.35,22.81-9.45c6.97-6.96,10.35-16.56,9.27-26.35
		l-0.54-4.96l4.95,0.55c8.56,0.94,16.98-1.5,23.7-6.89c6.73-5.39,10.95-13.07,11.89-21.63c0.26-2.35,0.26-4.72,0-7.07l-0.55-4.96
		l4.96,0.55c8.57,0.94,16.98-1.5,23.7-6.89c6.73-5.39,10.95-13.07,11.89-21.63c0.26-2.35,0.26-4.72,0-7.07l-0.55-4.95l4.96,0.54
		c8.57,0.93,16.99-1.51,23.72-6.9c6.72-5.4,10.94-13.09,11.88-21.66C400.17,446.74,396.79,437.13,389.83,430.17z M47,477.25
		c-6.22,0-12.44-2.36-17.17-7.07l-0.01-0.01c-9.45-9.47-9.45-24.87,0-34.34l24.01-24c9.66-9.37,25.07-9.12,34.39,0.5
		c9.18,9.47,9.18,24.32,0,33.8l-24.05,24.04C59.44,474.89,53.22,477.25,47,477.25z M87,517.25c-6.22,0-12.44-2.36-17.17-7.07
		l-0.01-0.01c-9.45-9.47-9.45-24.87,0-34.34l24.01-24c9.66-9.37,25.07-9.12,34.39,0.5c9.18,9.47,9.18,24.32,0,33.8l-24.05,24.04
		C99.44,514.89,93.22,517.25,87,517.25z M127,557.25c-6.22,0-12.43-2.36-17.17-7.07v-0.01c-9.46-9.47-9.46-24.87,0-34.34l24-24
		c9.66-9.37,25.07-9.12,34.39,0.5c9.18,9.47,9.18,24.32,0,33.8l-24.05,24.04C139.44,554.89,133.22,557.25,127,557.25z
		 M184.13,590.22c-4.71,4.56-10.81,6.83-16.9,6.83c-6.35,0-12.69-2.47-17.45-7.38c-9.18-9.47-9.18-24.32,0-33.8l24.05-24.04
		c9.66-9.37,25.07-9.12,34.39,0.5c9.18,9.47,9.18,24.32,0,33.8L184.13,590.22z"/>
</g>
</svg>
