<?xml version="1.0" encoding="iso-8859-1"?>
<!-- Generator: Adobe Illustrator 19.0.1, SVG Export Plug-In . SVG Version: 6.00 Build 0)  -->
<svg version="1.1" id="Capa_1" xmlns="http://www.w3.org/2000/svg" xmlns:xlink="http://www.w3.org/1999/xlink" x="0px" y="0px"
	 viewBox="-39 156 488 477" style="enable-background:new -39 156 488 477;" xml:space="preserve">
<g>
	<path style="fill:#E6E6E6;" d="M413.48,577.66l-6.62-1.21l4.23-5.24c5.07-6.27,7.88-14.16,7.91-22.23V533c0-19.85-16.15-36-36-36
		s-36,16.15-36,36v16c0.03,8.05,2.84,15.94,7.91,22.21l4.22,5.22l-6.6,1.23c-8.97,1.67-16.89,6.63-22.31,13.96l-3.22,4.36
		l-3.22-4.36c-5.42-7.33-13.34-12.29-22.31-13.96l-6.6-1.23l4.22-5.22c5.07-6.27,7.88-14.16,7.91-22.23V533c0-19.85-16.15-36-36-36
		s-36,16.15-36,36v16c0.03,8.05,2.84,15.94,7.91,22.21l4.22,5.22l-6.6,1.23c-8.97,1.67-16.89,6.63-22.31,13.96l-3.22,4.36
		l-3.22-4.36c-5.42-7.33-13.34-12.29-22.31-13.96l-6.6-1.23l4.22-5.22c5.07-6.27,7.88-14.16,7.91-22.23V533c0-19.85-16.15-36-36-36
		s-36,16.15-36,36v16c0.03,8.05,2.84,15.94,7.91,22.21l4.24,5.24l-6.63,1.21c-17.07,3.13-29.49,17.99-29.52,35.35V633h8v-20
		c0-15.44,12.56-28,28-28h48c15.44,0,28,12.56,28,28v20h8v-20c0-15.44,12.56-28,28-28h48c15.44,0,28,12.56,28,28v20h8v-20
		c0-15.44,12.56-28,28-28h48c15.44,0,28,12.56,28,28v20h8v-20C442.97,595.65,430.55,580.79,413.48,577.66z M159,577
		c-15.44,0-28-12.56-28-28v-16c0-15.44,12.56-28,28-28s28,12.56,28,28v16C187,564.44,174.44,577,159,577z M271,577
		c-15.44,0-28-12.56-28-28v-16c0-15.44,12.56-28,28-28s28,12.56,28,28v16C299,564.44,286.44,577,271,577z M383,577
		c-15.44,0-28-12.56-28-28v-16c0-15.44,12.56-28,28-28s28,12.56,28,28v16C411,564.44,398.44,577,383,577z"/>
</g>
<g>
	<path style="fill:#E6E6E6;" d="M162.66,323.41c-0.43-0.98-1.21-1.74-2.2-2.13c-0.47-0.19-0.96-0.28-1.46-0.28h-32
		c-0.84,0-1.64,0.26-2.3,0.73c-0.66,0.46-1.18,1.11-1.46,1.9l-12.22,33.59l-4.05-11.01C101.46,331.16,87,321.04,70.99,321h-8.32
		l4.95-6.44c4.73-6.15,7.35-13.81,7.38-21.57V277c0-19.85-16.15-36-36-36S3,257.15,3,277v16c0.03,7.75,2.65,15.41,7.38,21.56
		l4.95,6.44H7c-19.82,0.02-35.98,16.18-36,36v96c0,2.21,1.79,4,4,4H3v82.81l-15.33,22.97c-1.22,1.83-0.73,4.32,1.11,5.55
		C-10.56,568.77-9.79,569-9,569h96c1.07,0,2.07-0.42,2.83-1.17c0.75-0.76,1.17-1.76,1.17-2.83c0-0.79-0.23-1.56-0.67-2.22L75,539.81
		V374.06l9.59,19.03c3.43,6.87,9.33,11.98,16.61,14.4c7.27,2.43,15.06,1.87,21.92-1.56c6.29-3.15,11.19-8.48,13.81-15.01
		l25.79-64.47C163.1,325.47,163.08,324.39,162.66,323.41z M11,293v-16c0-15.44,12.56-28,28-28s28,12.56,28,28v16
		c0,15.44-12.56,28-28,28S11,308.44,11,293z M-21,449v-24H3v24H-21z M79.52,561H43v-96h-8v96H-1.52l11.85-17.78
		c0.44-0.66,0.67-1.43,0.67-2.23V441h56v100c0,0.79,0.23,1.56,0.68,2.23L79.52,561z M129.5,387.99c-2.06,5.14-6,9.16-11.08,11.34
		c-5.09,2.18-10.72,2.24-15.85,0.18c-4.71-1.88-8.55-5.42-10.82-9.95l-17.13-34.35c-0.98-2.03-3.38-2.86-5.36-1.9
		c-1.39,0.67-2.28,2.1-2.26,3.65V433H11v-76c0-2.21-1.79-4-4-4s-4,1.79-4,4v60h-24v-60c0-15.44,12.56-28,28-28h28v80h8v-80h28
		c12.66,0.03,24.09,8.03,28.44,19.91l7.8,21.46c0.36,1.01,1.1,1.81,2.07,2.26c0.96,0.45,2.05,0.5,3.05,0.14
		c1.12-0.41,1.99-1.28,2.4-2.4l3.41-9.37h22.12L129.5,387.99z M143.49,353h-22.42l8.73-24h23.29L143.49,353z"/>
</g>
<g>
	<path style="fill:#E6E6E6;" d="M439,201c2.21,0,4-1.79,4-4v-32c0-2.21-1.79-4-4-4H103c-2.21,0-4,1.79-4,4v32c0,2.21,1.79,4,4,4h12
		v96h8v-96h296v184H163v8h104v41.68l-50.54,28.86l3.96,6.95l46.58-26.6V473h8v-29.11l46.51,26.6l3.97-6.95L275,434.68V393h168v-8
		h-16V201H439z M107,193v-24h328v24H107z"/>
</g>
<g>
	<path style="fill:#E6E6E6;" d="M363,253v28h-8v-20.31l-73.7,51.59c-1.45,1.01-3.42,0.95-4.8-0.16l-37.64-30.11l-50.28,35.91
		l-4.65-6.49l52.75-37.68c1.45-1.04,3.43-0.98,4.82,0.13L279.16,304l70.36-49.25l-19.61-4.9l1.94-7.76l28.12,7.03
		C361.75,249.57,363,251.16,363,253z"/>
</g>
</svg>
