<?xml version="1.0" encoding="utf-8"?>
<!-- Generator: Adobe Illustrator 22.1.0, SVG Export Plug-In . SVG Version: 6.00 Build 0)  -->
<svg version="1.1" id="Capa_1" xmlns="http://www.w3.org/2000/svg" xmlns:xlink="http://www.w3.org/1999/xlink" x="0px" y="0px"
	 viewBox="0 0 535.7 607.7" style="enable-background:new 0 0 535.7 607.7;" xml:space="preserve">
<style type="text/css">
	.st0{fill:#79DDF9;}
</style>
<g>
	<g>
		<g>
			<g>
				<path class="st0" d="M351.6,127.7l183,183c1.5,1.5,1.5,4.2,0,5.7L421.6,429.3c-1.8,1.8-4.5,2-6.1,0.4l-78.8-78.8l-57.8,57.8
					l78.8,78.8c1.5,1.5,1.5,4.2,0,5.7L244.2,606.6c-1.5,1.5-4.2,1.5-5.7,0L61.3,429.3c-1.5-1.5-1.5-4.2,0-5.7c1.8-1.8,4.5-2,6.1-0.4
					l174,174L348,490.6l-78.8-78.8c-1.3-1.3-1.7-4.4,0.5-6.6l63.9-63.9c1.4-1.4,4.4-1.3,5.9,0.2l78.8,78.8l106.8-106.8L345.5,133.8
					c-2-2-2-4.7-0.1-6.6C347,125.7,349.7,125.9,351.6,127.7z"/>
			</g>
		</g>
		<g>
			<g>
				<path class="st0" d="M418.5,77.2c-0.3,1.4-0.9,2.5-1.8,3.4c-1.3,1.3-2.4,1.8-2.8,1.8L11.5,80.6l-2.5,0L8.4,484.2
					c0,1.4-0.6,2.8-1.3,3.6L7,487.8c-0.5,0.5-1,0.7-1.8,0.6l-0.8-0.1l-1.2-0.1c-0.7,0-1.3-0.1-1.8-0.6l-0.1-0.1
					c-0.8-0.7-1.4-2.1-1.3-3.6L0,76.4c0-2.4,0.7-3.1,1.1-3.5c0.3-0.3,1.3-0.7,3-0.6l194.4,0.5l-65-65c-1.8-1.8-2-4.5-0.4-6.1
					c2.1-2.1,4.9-2.2,6.8-0.3l71.2,71.2L413.7,73C416.1,73,418.1,75.2,418.5,77.2z"/>
			</g>
		</g>
	</g>
</g>
</svg>
