<?xml version="1.0" encoding="utf-8"?>
<!-- Generator: Adobe Illustrator 22.1.0, SVG Export Plug-In . SVG Version: 6.00 Build 0)  -->
<svg version="1.1" id="Capa_1" xmlns="http://www.w3.org/2000/svg" xmlns:xlink="http://www.w3.org/1999/xlink" x="0px" y="0px"
	 viewBox="0 0 573.1 636.9" style="enable-background:new 0 0 573.1 636.9;" xml:space="preserve">
<style type="text/css">
	.st0{fill:#79DDF9;}
</style>
<g>
	<g>
		<g>
			
				<rect x="168.6" y="458.3" transform="matrix(0.7071 -0.7071 0.7071 0.7071 -208.2092 420.9899)" class="st0" width="471" height="7"/>
		</g>
	</g>
</g>
<g>
	<g>
		<g>
			<path class="st0" d="M277.3,27.3c-0.6,1.8-2.5,2.8-4.5,2.2l-60-20l21.6,44.8c73.9,153.8,51.5,337.2-56.6,468.6l-5.4-4.5
				c51.8-63,84.7-139,94.9-220.1c10.4-82.5-3.1-165.9-39.2-240.8L206.7,13l-19.9,59.6c-0.6,1.8-2.5,2.8-4.5,2.2
				c-1.8-0.6-2.8-2.5-2.2-4.5l22.6-67.9c0.3-0.8,0.9-1.6,1.8-2.1c0.8-0.4,1.8-0.5,2.7-0.1l67.9,22.6
				C276.9,23.6,277.9,25.5,277.3,27.3z"/>
		</g>
	</g>
</g>
<g>
	<g>
		<g>
			<path class="st0" d="M243.2,504.6l-39.6,39.6c-1.3,1.3-1.3,3.6,0,4.9l33.9,33.9c1.3,1.3,3.6,1.3,4.9,0l39.6-39.6
				c1.3-1.3,1.3-3.6,0-4.9l-33.9-33.9C246.8,503.3,244.6,503.3,243.2,504.6z M274.7,541L240,575.7l-29-29l34.6-34.6L274.7,541z"/>
		</g>
	</g>
</g>
<g>
	<g>
		<g>
			<path class="st0" d="M288.5,425.4L248.9,465c-1.3,1.3-1.3,3.6,0,4.9l50.9,50.9c1.3,1.3,3.6,1.3,4.9,0l39.6-39.6
				c1.3-1.3,1.3-3.6,0-4.9l-50.9-50.9C292.1,424.1,289.8,424.1,288.5,425.4z M336.9,478.8l-34.6,34.6l-46-46l34.6-34.6L336.9,478.8z
				"/>
		</g>
	</g>
</g>
<g>
	<g>
		<g>
			<path class="st0" d="M322.4,334.9l-39.6,39.6c-1.3,1.3-1.3,3.6,0,4.9l79.2,79.2c1.3,1.3,3.6,1.3,4.9,0l39.6-39.6
				c1.3-1.3,1.3-3.6,0-4.9l-79.2-79.2C326,333.6,323.7,333.6,322.4,334.9z M399.1,416.6l-34.6,34.6L290.2,377l34.6-34.6L399.1,416.6
				z"/>
		</g>
	</g>
</g>
<g>
	<g>
		<g>
			<path class="st0" d="M345,233.1l-39.6,39.6c-1.3,1.3-1.3,3.6,0,4.9l118.8,118.8c1.3,1.3,3.6,1.3,4.9,0l39.6-39.6
				c1.3-1.3,1.3-3.6,0-4.9L350,233.1C348.6,231.7,346.4,231.7,345,233.1z M461.4,354.3L426.7,389L312.9,275.1l34.6-34.6L461.4,354.3
				z"/>
		</g>
	</g>
</g>
<g>
	<g>
		<g>
			<path class="st0" d="M328.1,91.7l-39.6,39.6c-1.3,1.3-1.3,3.6,0,4.9l198,198c1.3,1.3,3.6,1.3,4.9,0l39.6-39.6
				c1.3-1.3,1.3-3.6,0-4.9l-198-198C331.7,90.3,329.4,90.3,328.1,91.7z M523.6,292.1l-34.6,34.6l-193-193l34.6-34.6L523.6,292.1z"/>
		</g>
	</g>
</g>
</svg>
