<?xml version="1.0" encoding="utf-8"?>
<!-- Generator: Adobe Illustrator 22.1.0, SVG Export Plug-In . SVG Version: 6.00 Build 0)  -->
<svg version="1.1" id="Layer_1" xmlns="http://www.w3.org/2000/svg" xmlns:xlink="http://www.w3.org/1999/xlink" x="0px" y="0px"
	 viewBox="0 0 94 80" style="enable-background:new 0 0 94 80;" xml:space="preserve">
<style type="text/css">
	.st0{fill:none;stroke:#66ECEE;stroke-linecap:round;stroke-linejoin:round;stroke-miterlimit:10;}
</style>
<g>
	<path class="st0" d="M28.1,28.2L10.3,42.6c-1.9,1.6-5.2,1.5-7.2-0.1l0,0c-2-1.6-2.1-4.3-0.1-5.8l18.1-14.6"/>
	<path class="st0" d="M33.1,12.3l10-8.1c1.9-1.6,5.2-1.5,7.2,0.1l0,0c2,1.6,2.1,4.3,0.1,5.8L40.7,18"/>
	<path class="st0" d="M36.1,54.7l-5.5,4.5c-1.9,1.6-5.2,1.5-7.2-0.1l0,0c-2-1.6-2.1-4.3-0.1-5.8l5.5-4.5"/>
	<path class="st0" d="M40.7,39.1l22.7-18.3c1.9-1.6,5.2-1.5,7.2,0.1l0,0c2,1.6,2.1,4.3,0.1,5.8L48.9,44.4"/>
	<path class="st0" d="M38.4,26.4c3.9-3.2,3.8-8.4-0.2-11.8s-10.5-3.4-14.5-0.3s-3.8,8.4,0.2,11.8S34.4,29.6,38.4,26.4z"/>
	<path class="st0" d="M45.6,52.6c3.8-3,3.7-8.1-0.2-11.3S35.3,38,31.5,41.1c-3.8,3-3.7,8.1,0.2,11.3C35.6,55.5,41.8,55.7,45.6,52.6z
		"/>
	<path class="st0" d="M85.8,53.6c3.9-3.2,3.8-8.4-0.2-11.8c-4.1-3.3-10.5-3.4-14.5-0.3c-3.9,3.2-3.8,8.4,0.2,11.8
		C75.4,56.6,81.8,56.8,85.8,53.6z"/>
	<g>
		<path class="st0" d="M88.6,45.3L89,45l1.9-1.6c1.9-1.6,1.9-4.2-0.1-5.8s-5.2-1.7-7.2-0.1l-2.7,2.2l0.4-0.3"/>
		<path class="st0" d="M68.3,49.9L43.6,69.8c-1.9,1.6-1.9,4.2,0.1,5.8c2,1.6,5.2,1.7,7.2,0.1l24.7-19.9"/>
	</g>
</g>
</svg>
