<?xml version="1.0" encoding="utf-8"?>
<!-- Generator: Adobe Illustrator 22.1.0, SVG Export Plug-In . SVG Version: 6.00 Build 0)  -->
<svg version="1.1" id="Layer_1" xmlns="http://www.w3.org/2000/svg" xmlns:xlink="http://www.w3.org/1999/xlink" x="0px" y="0px"
	 viewBox="0 0 508 506.3" style="enable-background:new 0 0 508 506.3;" xml:space="preserve">
<style type="text/css">
	.st0{fill:#79DDF9;}
</style>
<g>
	<g>
		<g>
			<path class="st0" d="M436.7,105.6c-15.7-1.1-31,2.7-44.3,10.8l-3.3,2.1l-51.7-51.7c-39-39-93.1-59-148.4-54.9l-2,0.1l-1.6-1.1
				c-6.9-5.4-15.8-7.6-24.3-5.7c-6.2,1.3-12.4,3-18.5,4.9c-1.5,0.5-2.4,2.1-1.9,3.6c0.2,0.8,0.8,1.3,1.4,1.7
				c0.6,0.4,1.4,0.4,2.2,0.2c5.9-1.9,12-3.5,17.9-4.7c6.2-1.3,12.4-0.1,17.7,3.3c5.2,3.4,8.9,8.6,10.2,14.8
				c1.3,6.1,0.1,12.3-3.3,17.6c-3.5,5.3-8.6,8.9-14.8,10.3c-27.8,5.9-53.2,19.8-73.3,40s-34,45.6-40,73.3
				c-1.3,6.1-4.9,11.3-10.3,14.8s-11.5,4.6-17.6,3.3c-12.7-2.8-20.7-15.2-18.1-27.9c7.8-36.7,26-70.1,52.7-96.8
				c14-14,30-25.7,47.5-34.9c1.4-0.7,2-2.5,1.3-4s-2.5-2-4-1.3c-18,9.4-34.4,21.6-48.9,36C34,86.7,15.2,121.1,7.2,158.9
				c-1.9,8.7,0.2,17.6,5.7,24.5l1.2,1.5l-0.1,2c-4.1,55.3,15.9,109.4,54.9,148.4l51.8,51.8l-2.1,3.3c-18.2,29.6-13.8,67.4,10.8,92
				c24.8,24.8,64.1,28.9,93.6,9.8l2.1-1.4l2.4,1c7,2.8,14.9,1.2,20.2-4.1l10.5-10.5c7.3-7.3,7.4-19.2,0-26.6l-55.2-55.2
				c-1.1-1.1-3-1.1-4.1,0c-1.1,1.1-1.1,3,0,4.1l55.2,55.2c5,5,5,13.2,0,18.2l-10.5,10.5c-5,5-13.2,5-18.2,0L119.1,377.2l19.6-19.6
				c5-5,13.2-5,18.2,0l12,12c1.1,1.1,3,1.1,4.1,0c1.1-1.1,1.1-3,0-4.1l-12-12c-5.4-5.4-13.5-7-20.6-4l-3.1,1.3l-42-42
				c-30.5-30.5-46.7-72.8-44.3-116.1l0.1-2.4l1.9-1.3c5.8-4.2,9.8-10.5,11.3-17.5c5.7-26.7,19-51.1,38.4-70.5s43.7-32.7,70.5-38.4
				c7.1-1.6,13.3-5.5,17.5-11.3l1.3-1.9l2.4-0.1c43.3-2.4,85.6,13.8,116.1,44.3l42.1,42.1l-1.3,3.1c-3,7.1-1.4,15.1,4,20.6l97,97
				c7.3,7.3,19.2,7.4,26.6,0l10.4-10.4c5.3-5.3,6.9-13.3,4.1-20.2l-1-2.4l1.4-2.1c19.1-29.4,15-68.7-9.8-93.6
				C471.5,114.5,454.6,106.8,436.7,105.6z M220.6,487l-5.9,3.2c-26.5,14.2-60,9.3-81.2-12c-21.7-21.7-26.5-54.4-12-81.2l3.2-5.9
				L220.6,487z M45,199.2c-0.5,42.4,16.4,83.7,46.2,113.6l42,42L115,373.1l-42-42c-17.7-17.7-31.3-38.4-40.5-61.4
				c-9.2-23.1-13.6-47.3-13.2-72.3l0.1-6.9l6.6,2.3c4.3,1.5,9,2.1,13.5,1.5l5.7-0.7L45,199.2z M485.4,223.3c5,5,5,13.2,0,18.2
				L474.9,252c-5,5-13.2,5-18.2,0l-97.1-97.1c-5-5-5-13.2,0-18.2l19.6-19.6L485.4,223.3L485.4,223.3z M375.1,113l-18.2,18.2l-42-42
				C285,59.4,243.6,42.5,201.3,43l-5.7,0.1l0.7-5.7c0.6-4.5,0-9.2-1.5-13.5l-2.3-6.6l6.9-0.1c49.9-1,98.6,18.6,133.8,53.7L375.1,113
				L375.1,113z M492.2,212.7l-3.2,5.9l-96-96l5.9-3.1c26.5-14.2,60-9.3,81.2,12C501.5,152.7,506.4,186.2,492.2,212.7z"/>
		</g>
	</g>
</g>
<g>
	<g>
		<g>
			<path class="st0" d="M181.3,175.6c-0.6,0.1-1.1,0.4-1.5,0.8c-0.3,0.3-0.5,0.6-0.6,1.1l-23.7,65.1L129.1,269c-1.1,1.1-1.1,3,0,4.1
				l35.9,35.9c1.1,1.1,3,1.1,4.1,0l26.4-26.4l65.1-23.7c1.3-0.5,1.6-1.6,1.8-2.1c0.1-0.5,0.3-1.7-0.7-2.7L184,176.3
				C183.3,175.6,182.3,175.3,181.3,175.6z M189.7,279.9L167,302.7L135.3,271l22.8-22.8L189.7,279.9z M254.2,254.9l-59.6,21.7
				l-33.2-33.2l21.7-59.6L254.2,254.9z"/>
		</g>
	</g>
</g>
<g>
	<g>
		<g>
			<path class="st0" d="M252,186c7.4,7.4,11.4,17.2,11.4,27.5c0,1.1-0.6,1.8-1,2.1c-0.4,0.4-1.1,0.8-2.2,0.8c-1.5-0.1-2.7-1.4-2.7-3
				c0.1-8.8-3.4-17.1-9.7-23.4s-14.5-9.7-23.3-9.6c-0.8-0.1-1.5-0.4-2.1-0.8c-0.6-0.6-0.8-1.3-0.8-2.1s0.3-1.6,0.8-2.1
				s1.3-0.8,2.1-0.9C234.9,174.7,244.5,178.7,252,186z"/>
		</g>
	</g>
</g>
<g>
	<g>
		<g>
			<path class="st0" d="M274.3,163.7c12.5,12.5,20.2,29.1,21.6,46.7c0.1,1.1-0.5,1.9-0.8,2.3c-0.6,0.6-1.4,1-2.2,0.9
				c-1.4,0-2.7-1.3-2.8-2.7c-1.3-16.2-8.3-31.5-19.9-43.1c-16.2-16.2-39.4-23.3-61.9-18.9c-0.7,0.1-1.6,0-2.2-0.5s-1.1-1.1-1.2-1.9
				c-0.2-0.8,0-1.6,0.5-2.2c0.1-0.1,0.2-0.4,0.4-0.5c0.4-0.4,0.9-0.6,1.5-0.8C231.7,138.4,256.8,146.1,274.3,163.7z"/>
		</g>
	</g>
</g>
<g>
	<g>
		<g>
			<path class="st0" d="M296.7,141.3c18,18,29,42,30.9,67.4c0.1,1.1-0.5,1.9-0.8,2.3c-0.6,0.6-1.4,1-2.2,0.9c-1.4,0-2.7-1.3-2.8-2.7
				c-1.8-24-12.2-46.7-29.2-63.7c-22.1-22.1-52.7-32.6-83.8-28.6c-1.6,0.2-3-0.9-3.3-2.5c-0.1-0.8,0.1-1.6,0.6-2.1
				c0.1-0.1,0.2-0.2,0.3-0.3c0.4-0.4,1.1-0.8,1.7-0.8C241,106.8,273.3,117.9,296.7,141.3z"/>
		</g>
	</g>
</g>
</svg>
