<?xml version="1.0" encoding="utf-8"?>
<!-- Generator: Adobe Illustrator 22.1.0, SVG Export Plug-In . SVG Version: 6.00 Build 0)  -->
<svg version="1.1" id="Layer_1" xmlns="http://www.w3.org/2000/svg" xmlns:xlink="http://www.w3.org/1999/xlink" x="0px" y="0px"
	 viewBox="0 0 76.5 62.5" style="enable-background:new 0 0 76.5 62.5;" xml:space="preserve">
<style type="text/css">
	.st0{fill:none;stroke:#66ECEE;stroke-miterlimit:10;}
	.st1{fill:none;stroke:#66ECEE;stroke-linecap:round;stroke-linejoin:round;stroke-miterlimit:10;}
</style>
<g>
	<path class="st0" d="M23.6,42.8c-4.9-5.6-4.8-13.3,0.3-19.1c3.7-4.3,9.5-7,15.7-7.4c5.9-0.4,11.7,1.3,15.8,4.6
		c2.7,2.2,4.5,5,5.3,8.1c1.2,4.7,3.1,8.8,5.8,12.2c0.2,0.2,0.3,0.4,0.4,0.7s0.2,0.7,0.2,1c0,0.4-0.9,1.1-1,1.2l-11.6,9.5
		c-0.3,0.2-1.6,0.8-2.2,0.8l0,0c-0.5-0.1-1-0.2-1.4-0.5c-3.9-2.2-8.7-3.7-14.4-4.5C31.3,48.8,26.8,46.3,23.6,42.8z"/>
	<line class="st1" x1="13.1" y1="10.8" x2="21.3" y2="17.4"/>
	<line class="st1" x1="69.6" y1="10" x2="61.4" y2="16.5"/>
	<line class="st1" x1="20.5" y1="49.8" x2="12.4" y2="56.5"/>
	<line class="st1" x1="42.5" y1="1.2" x2="42.5" y2="10.5"/>
	<line class="st1" x1="1.4" y1="34.5" x2="12.9" y2="34.5"/>
	<path class="st1" d="M70.3,46.7l2.1,1.7c3.7,3,3.7,7.8,0,10.8s-9.6,3-13.3,0l-2.1-1.7L70.3,46.7z"/>
</g>
</svg>
