<?xml version="1.0" encoding="utf-8"?>
<!-- Generator: Adobe Illustrator 22.1.0, SVG Export Plug-In . SVG Version: 6.00 Build 0)  -->
<svg version="1.1" id="Capa_1" xmlns="http://www.w3.org/2000/svg" xmlns:xlink="http://www.w3.org/1999/xlink" x="0px" y="0px"
	 viewBox="-27.9 162.1 469.9 469.9" style="enable-background:new -27.9 162.1 469.9 469.9;" xml:space="preserve">
<style type="text/css">
	.st0{fill:#79DDF9;}
</style>
<g>
	<g>
		<path class="st0" d="M439,594h-29V437c0-1.7-1.3-3-3-3c-1,0-1.9,0.5-2.5,1.3l-112,160c-0.9,1.4-0.6,3.2,0.8,4.2
			c0.5,0.3,1.1,0.5,1.7,0.5h109v29c0,1.7,1.3,3,3,3s3-1.3,3-3v-29h29c1.7,0,3-1.3,3-3S440.7,594,439,594z M404,594H300.8L404,446.5
			V594z"/>
	</g>
	<g>
		<path class="st0" d="M298,629c0,1.7-1.3,3-3,3H183c-0.7,0-1.4-0.3-1.9-0.7c-0.6-0.5-1-1.3-1-2c-0.1-0.8,0.2-1.6,0.7-2.2
			l98.9-116.5l0.4-0.5c13-19.5,8.7-45.8-9.9-60.1l-0.1-0.1c-9.1-6.5-19.8-10-30.9-10c0,0,0,0,0,0c-29.2,0-53,23.8-53,53
			c0,1.7-1.3,3-3,3s-3-1.3-3-3c0-12.4,3.8-24.3,11.1-34.4c19-26.4,55.9-32.5,82.3-13.5c21.5,16.3,26.5,46.4,11.4,68.7
			c-0.1,0.1-0.2,0.2-0.2,0.3L189.5,626H295C296.7,626,298,627.3,298,629z"/>
	</g>
	<g>
		<path class="st0" d="M439.2,335.8c0,0.8-0.3,1.6-0.8,2.1l-45.2,45.2c-0.3,0.2-0.5,0.4-0.8,0.6c0,0-0.1,0-0.1,0l-0.5,0l-0.5,0.2
			c-0.1,0-0.3,0.1-0.4,0.1c-0.1,0-0.2-0.1-0.3-0.1l-0.4-0.1l-0.4-0.1c-0.1,0-0.1,0-0.2,0c-0.4-0.2-0.7-0.4-1-0.8l-0.1-0.2
			l-44.8-44.8c-1.1-1.2-1.1-3,0-4.2c1.1-1.2,3-1.2,4.2-0.1l40.5,40.5l-0.8-13.1c-2.9-50.9-24.6-98.6-61-134.3
			c-36.4-35.7-84.5-56.5-135.4-58.4l-5.2-0.2V197c0,1.7-1.3,3-3,3s-3-1.3-3-3v-28.9l-5.2,0.2c-51.7,2-100.2,23.2-136.8,59.8
			c-36.5,36.6-57.8,85.1-59.8,136.8l-0.2,5.2H15c1.7,0,3,1.3,3,3s-1.3,3-3,3h-36.9l0.2,5.2c2,51.7,23.3,100.4,59.9,137
			c36.7,36.6,85.3,57.8,137.1,59.7h0c0.8,0,1.5,0.4,2.1,1c0.5,0.6,0.8,1.3,0.8,2.2c-0.1,1.6-1.4,2.9-3,2.9H175
			C61.4,579.6-27.7,487.2-27.9,373.6v-0.2c0-0.1,0-0.3,0-0.4c0-0.2,0-0.4,0-0.6c0.2-115.8,94.5-210.2,210.3-210.3h0.2
			c0.1,0,0.3,0,0.4,0c0.1,0,0.2,0,0.4,0h0.2c112.2,0.2,204.5,88.1,210.1,200.2l0.6,11.3l39.9-39.9c1.2-1.1,3-1.1,4.2,0
			C438.8,334.2,439.2,335,439.2,335.8z"/>
	</g>
	<g>
		<path class="st0" d="M287,269.1c-1.2-1.2-3.1-1.2-4.3,0l-88.4,88.4l-3.1-1.4c-5.2-2.3-11.1-2.3-16.3,0l-3.1,1.4l-43.1-43.1
			c-0.5-0.5-1.2-0.8-2-0.8h-0.1c-0.8,0-1.5,0.3-2.1,0.9c-1.1,1.2-1.1,3,0,4.2l43.1,43.1l-1.5,3.2c-4.5,9.4-0.5,20.8,8.9,25.3
			c7.2,3.4,15.9,2,21.6-3.7c5.7-5.7,7.2-14.3,3.7-21.5l-1.6-3.2l88.4-88.4C288.1,272.1,288.1,270.2,287,269.1z M192.8,381.5
			l-0.1,0.1l-0.6,0.6c-2.5,2.4-5.8,3.7-9.1,3.7s-6.6-1.2-9.1-3.7l-0.1-0.1c-5.1-5.1-5.1-13.3,0-18.4c2.5-2.5,5.7-3.8,9.2-3.8
			c1.7,0,3.4,0.3,5,1c1.6,0.6,3,1.6,4.2,2.8C197,368.7,197.3,376.4,192.8,381.5z"/>
	</g>
</g>
</svg>
