<?xml version="1.0" encoding="utf-8"?>
<!-- Generator: Adobe Illustrator 22.1.0, SVG Export Plug-In . SVG Version: 6.00 Build 0)  -->
<svg version="1.1" id="Слой_1" xmlns="http://www.w3.org/2000/svg" xmlns:xlink="http://www.w3.org/1999/xlink" x="0px" y="0px"
	 viewBox="0 0 519.9 490" style="enable-background:new 0 0 519.9 490;" xml:space="preserve">
<style type="text/css">
	.st0{fill:#79DDF9;}
</style>
<g>
	<path class="st0" d="M474.4,245.6c-0.4,0-0.7,0-1.1,0.1c2.3,0.3,4.5,0.6,6.6,1.3C478.3,246.1,476.4,245.6,474.4,245.6z
		 M474.4,245.6c-0.4,0-0.7,0-1.1,0.1c2.3,0.3,4.5,0.6,6.6,1.3C478.3,246.1,476.4,245.6,474.4,245.6z M474.4,245.6
		c-0.4,0-0.7,0-1.1,0.1c2.3,0.3,4.5,0.6,6.6,1.3C478.3,246.1,476.4,245.6,474.4,245.6z M474.4,245.6c-0.4,0-0.7,0-1.1,0.1
		c2.3,0.3,4.5,0.6,6.6,1.3C478.3,246.1,476.4,245.6,474.4,245.6z M290.9,6.1C239,58,193.3,82.7,164,94.3
		c-32.3,12.8-52.1,12.9-52.4,12.9c-0.8,0-1.6,0.3-2.1,0.8s-0.8,1.3-0.8,2.1c0,0.1-0.1,20.1-12.9,52.3
		c-11.5,29.3-36.3,75.2-88.2,127.1c-1.2,1.2-1.1,3.1,0,4.2l147.4,147.4c0.2,0.2,0.4,0.4,0.7,0.6c1.8,0.9,43.6,23.1,102.7,37.1
		c34.9,8.3,68.3,12,99.6,11.1c39.2-1.2,75.1-9.8,106.5-25.5c0.6-0.3,1.1-0.8,1.3-1.3c18.6-37.1,27.2-80.3,25.4-128.2l-0.1-2.8
		l2.5-1.3c4.2-2.3,8.1-5.2,11.4-8.6c19.9-19.9,19.9-52.3,0-72.3c-7.6-7.6-17.1-12.4-27.6-14.2l-2.8-0.5l-0.8-2.7
		c-13.6-46.2-29.9-77-30.6-78.3c-0.1-0.3-0.4-0.5-0.6-0.7L295.1,6.2C294,4.9,292.1,4.9,290.9,6.1z M500.7,254
		c17.6,17.6,17.6,46.2,0,63.8c-17.5,17.5-46.2,17.6-63.8,0s-17.6-46.2,0-63.8C454.5,236.5,483.1,236.5,500.7,254z M450.3,333.5
		l2.8,1.1l0.1,3c1.1,32.3-3.3,62.1-12.9,88.4l-2.4,6.6l-141-141l115-115l2.7,5.9c5.9,12.9,14.6,33.8,22.3,60l0.8,2.8l-2.2,1.9
		c-1.1,1-2.1,1.8-2.9,2.6c-19.9,19.9-19.9,52.3,0,72.3C437.7,327.2,443.6,331,450.3,333.5z M173.8,406.2L58.6,290.9l2.8-3.2
		c31.9-36.7,55.5-74.5,70.4-112.2c3-7.8,5.7-15.6,7.9-23.2l2.1-7.4l47.8,47.8c1.2,1.2,3.1,1.1,4.2,0c1.1-1.1,1.1-3.1,0-4.2
		l-48.1-48.1l7.4-2.1c7.8-2.2,15.9-4.9,24-8.1c37.8-14.7,75.5-38.5,112.2-70.4l3.2-2.8l115.3,115.3l-115,115L218.2,213
		c-1.2-1.2-3.1-1.1-4.2,0c-1.1,1.1-1.2,3,0,4.2l74.4,74.4L173.8,406.2L173.8,406.2z M292.6,295.9l140.8,140.8l-6.6,2.4
		c-41.4,14.9-90.2,16.9-144.8,5.9c-43.9-8.8-80.3-23.8-97.9-32l-5.8-2.7L292.6,295.9z M438,157.4l0.4,0.6
		c2.6,5.2,16.3,32.6,28.1,71.4l1.6,5.2l-5.3,0.6c-5.3,0.6-10.4,2.1-15.1,4.2l-4.7,2.1l-1.5-4.9c-9.6-31.4-20.4-54.7-24.5-63.4
		c-0.1-0.3-0.3-0.6-0.6-0.8L294.7,50.7c-1.1-1.1-3-1.1-4.1-0.1c-37.9,33.8-76.8,58.7-115.8,73.9c-12.1,4.7-24,8.4-35.4,11
		c-1.1,0.3-2.1,1.2-2.3,2.3c-2.5,11.5-6.2,23.3-11,35.4c-15.2,39-40.1,77.9-73.9,115.8c-1.1,1.2-1,3,0.1,4.1l121.7,121.7
		c0.2,0.2,0.5,0.5,0.8,0.6c25.2,12.4,157,71.7,265.4,24.9c0.7-0.3,1.3-0.8,1.6-1.6c12.3-28.6,18.2-61.3,17.5-97.4l-0.1-5l5,0.5
		c5.2,0.4,10.5,0.1,15.7-1l5.3-1.2l0.1,5.5c1,43.8-7.1,83.4-23.8,117.9l-0.7,1.4l-1.4,0.7c-69.1,33.4-146.6,25.5-199.5,12.9
		c-53.4-12.7-93.3-32.3-100.6-36.1l-0.6-0.4l-145-145l3-3.2c49.6-51.1,73.5-96,84.7-124.7c8.8-22.5,11.6-39.2,12.5-47l0.4-3.5
		l3.5-0.4c7.9-0.8,24.5-3.7,47-12.5c28.6-11.2,73.6-35,124.7-84.6l3.2-3L438,157.4L438,157.4z M480,246.9c-1.7-0.8-3.6-1.3-5.6-1.3
		c-0.4,0-0.7,0-1.1,0.1C475.6,245.9,477.8,246.3,480,246.9z M474.4,245.6c-0.4,0-0.7,0-1.1,0.1c2.3,0.3,4.5,0.6,6.6,1.3
		C478.3,246.1,476.4,245.6,474.4,245.6z M474.4,245.6c-0.4,0-0.7,0-1.1,0.1c2.3,0.3,4.5,0.6,6.6,1.3
		C478.3,246.1,476.4,245.6,474.4,245.6z M474.4,245.6c-0.4,0-0.7,0-1.1,0.1c2.3,0.3,4.5,0.6,6.6,1.3
		C478.3,246.1,476.4,245.6,474.4,245.6z M474.4,245.6c-0.4,0-0.7,0-1.1,0.1c2.3,0.3,4.5,0.6,6.6,1.3
		C478.3,246.1,476.4,245.6,474.4,245.6z"/>
	<path class="st0" d="M474.4,245.6c-0.4,0-0.7,0-1.1,0.1c2.3,0.3,4.5,0.6,6.6,1.3C478.3,246.1,476.4,245.6,474.4,245.6z
		 M473.4,250.2c1.6,0.2,3.3,0.6,4.9,0.9c-1.1-0.7-2.4-1-3.7-1.1C474.1,250,473.7,250.1,473.4,250.2z M474.4,245.6
		c-0.4,0-0.7,0-1.1,0.1c2.3,0.3,4.5,0.6,6.6,1.3C478.3,246.1,476.4,245.6,474.4,245.6z M473.4,250.2c1.6,0.2,3.3,0.6,4.9,0.9
		c-1.1-0.7-2.4-1-3.7-1.1C474.1,250,473.7,250.1,473.4,250.2z M474.4,245.6c-0.4,0-0.7,0-1.1,0.1c2.3,0.3,4.5,0.6,6.6,1.3
		C478.3,246.1,476.4,245.6,474.4,245.6z M473.4,250.2c1.6,0.2,3.3,0.6,4.9,0.9c-1.1-0.7-2.4-1-3.7-1.1
		C474.1,250,473.7,250.1,473.4,250.2z M474.4,245.6c-0.4,0-0.7,0-1.1,0.1c2.3,0.3,4.5,0.6,6.6,1.3
		C478.3,246.1,476.4,245.6,474.4,245.6z M473.4,250.2c1.6,0.2,3.3,0.6,4.9,0.9c-1.1-0.7-2.4-1-3.7-1.1
		C474.1,250,473.7,250.1,473.4,250.2z M474.4,245.6c-0.4,0-0.7,0-1.1,0.1c2.3,0.3,4.5,0.6,6.6,1.3
		C478.3,246.1,476.4,245.6,474.4,245.6z M473.4,250.2c1.6,0.2,3.3,0.6,4.9,0.9c-1.1-0.7-2.4-1-3.7-1.1
		C474.1,250,473.7,250.1,473.4,250.2z M474.4,245.6c-0.4,0-0.7,0-1.1,0.1c2.3,0.3,4.5,0.6,6.6,1.3
		C478.3,246.1,476.4,245.6,474.4,245.6z M473.4,250.2c1.6,0.2,3.3,0.6,4.9,0.9c-1.1-0.7-2.4-1-3.7-1.1
		C474.1,250,473.7,250.1,473.4,250.2z M474.4,245.6c-0.4,0-0.7,0-1.1,0.1c2.3,0.3,4.5,0.6,6.6,1.3
		C478.3,246.1,476.4,245.6,474.4,245.6z M473.4,250.2c1.6,0.2,3.3,0.6,4.9,0.9c-1.1-0.7-2.4-1-3.7-1.1
		C474.1,250,473.7,250.1,473.4,250.2z M474.4,245.6c-0.4,0-0.7,0-1.1,0.1c2.3,0.3,4.5,0.6,6.6,1.3
		C478.3,246.1,476.4,245.6,474.4,245.6z M473.4,250.2c1.6,0.2,3.3,0.6,4.9,0.9c-1.1-0.7-2.4-1-3.7-1.1
		C474.1,250,473.7,250.1,473.4,250.2z M474.4,245.6c-0.4,0-0.7,0-1.1,0.1c2.3,0.3,4.5,0.6,6.6,1.3
		C478.3,246.1,476.4,245.6,474.4,245.6z M473.4,250.2c1.6,0.2,3.3,0.6,4.9,0.9c-1.1-0.7-2.4-1-3.7-1.1
		C474.1,250,473.7,250.1,473.4,250.2z M474.4,245.6c-0.4,0-0.7,0-1.1,0.1c2.3,0.3,4.5,0.6,6.6,1.3
		C478.3,246.1,476.4,245.6,474.4,245.6z M473.4,250.2c1.6,0.2,3.3,0.6,4.9,0.9c-1.1-0.7-2.4-1-3.7-1.1
		C474.1,250,473.7,250.1,473.4,250.2z M474.4,245.6c-0.4,0-0.7,0-1.1,0.1c2.3,0.3,4.5,0.6,6.6,1.3
		C478.3,246.1,476.4,245.6,474.4,245.6z M473.4,250.2c1.6,0.2,3.3,0.6,4.9,0.9c-1.1-0.7-2.4-1-3.7-1.1
		C474.1,250,473.7,250.1,473.4,250.2z M474.4,245.6c-0.4,0-0.7,0-1.1,0.1c2.3,0.3,4.5,0.6,6.6,1.3
		C478.3,246.1,476.4,245.6,474.4,245.6z M473.4,250.2c1.6,0.2,3.3,0.6,4.9,0.9c-1.1-0.7-2.4-1-3.7-1.1
		C474.1,250,473.7,250.1,473.4,250.2z M474.4,245.6c-0.4,0-0.7,0-1.1,0.1c2.3,0.3,4.5,0.6,6.6,1.3
		C478.3,246.1,476.4,245.6,474.4,245.6z M473.4,250.2c1.6,0.2,3.3,0.6,4.9,0.9c-1.1-0.7-2.4-1-3.7-1.1
		C474.1,250,473.7,250.1,473.4,250.2z"/>
</g>
<g>
	<path class="st0" d="M476.6,255.5c0.6,0.6,0.9,1.3,0.8,2.1V303c0,1.6-1.4,3-3,3h-22.6c-1.7,0-3-1.3-3-3c0-0.8,0.4-1.6,0.8-2.1
		c0.6-0.6,1.3-0.8,2.1-0.8h19.7l0-42.3c0-1.7,1.3-3,3-3C475.3,254.6,476,254.9,476.6,255.5z"/>
	<path class="st0" d="M478.3,251.1c-1.6-0.4-3.3-0.7-4.9-0.9c0.4-0.1,0.7-0.1,1.1-0.1C475.8,250.1,477.1,250.4,478.3,251.1z"/>
	<path class="st0" d="M474.4,245.6c-0.4,0-0.7,0-1.1,0.1c2.3,0.3,4.5,0.6,6.6,1.3C478.3,246.1,476.4,245.6,474.4,245.6z
		 M473.4,250.2c1.6,0.2,3.3,0.6,4.9,0.9c-1.1-0.7-2.4-1-3.7-1.1C474.1,250,473.7,250.1,473.4,250.2z"/>
</g>
</svg>
