<?xml version="1.0" encoding="utf-8"?>
<!-- Generator: Adobe Illustrator 19.0.1, SVG Export Plug-In . SVG Version: 6.00 Build 0)  -->
<svg version="1.1" id="Слой_1" xmlns="http://www.w3.org/2000/svg" xmlns:xlink="http://www.w3.org/1999/xlink" x="0px" y="0px"
	 viewBox="0 0 23.4 12.5" style="enable-background:new 0 0 23.4 12.5;" xml:space="preserve">
<style type="text/css">
	.st0{fill:#FFFFFF;}
</style>
<g>
	<g>
		<path class="st0" d="M16.2,1.5c-0.4-0.4-0.4-0.9,0-1.3c0.4-0.3,0.9-0.3,1.3,0l5.3,5.3C22.9,5.7,23,6,23,6.2s-0.1,0.5-0.3,0.6
			l-5.3,5.3c-0.4,0.4-0.9,0.4-1.3,0c-0.4-0.4-0.4-0.9,0-1.3L20,7.1H1.5C1,7.1,0.6,6.7,0.6,6.2S1,5.3,1.5,5.3H20L16.2,1.5z M16.2,1.5
			"/>
	</g>
</g>
</svg>
