<?xml version="1.0" encoding="iso-8859-1"?>
<!-- Generator: Adobe Illustrator 19.0.1, SVG Export Plug-In . SVG Version: 6.00 Build 0)  -->
<svg version="1.1" id="&#x421;&#x43B;&#x43E;&#x439;_1"
	 xmlns="http://www.w3.org/2000/svg" xmlns:xlink="http://www.w3.org/1999/xlink" x="0px" y="0px" viewBox="0 0 35.391 35.391"
	 style="enable-background:new 0 0 35.391 35.391;" xml:space="preserve">
<g>
	<line style="fill:#ECD1CA;" x1="12.426" y1="22.965" x2="22.965" y2="12.426"/>
	<path style="fill:#ECD1CA;" d="M12.426,23.563c-0.153,0-0.305-0.059-0.422-0.176c-0.234-0.234-0.234-0.613,0-0.848L22.539,12
		c0.234-0.234,0.613-0.234,0.848,0c0.234,0.235,0.234,0.618,0,0.852L12.852,23.387C12.734,23.504,12.578,23.563,12.426,23.563
		L12.426,23.563z M12.426,23.563"/>
	<line style="fill:#ECD1CA;" x1="12.426" y1="12.426" x2="22.965" y2="22.965"/>
	<path style="fill:#ECD1CA;" d="M22.965,23.563c-0.156,0-0.309-0.059-0.426-0.176L12,12.852c-0.234-0.234-0.234-0.617,0-0.852
		c0.234-0.234,0.617-0.234,0.852,0l10.535,10.539c0.234,0.235,0.234,0.614,0,0.848C23.27,23.504,23.117,23.563,22.965,23.563
		L22.965,23.563z M22.965,23.563"/>
	<path style="fill:#ECD1CA;" d="M17.695,35.391C7.938,35.391,0,27.454,0,17.696S7.938,0,17.695,0
		c9.758,0,17.696,7.938,17.696,17.696S27.453,35.391,17.695,35.391L17.695,35.391z M17.695,1.2C8.602,1.2,1.199,8.602,1.199,17.696
		c0,9.093,7.403,16.496,16.496,16.496c9.094,0,16.496-7.403,16.496-16.496C34.191,8.602,26.789,1.2,17.695,1.2L17.695,1.2z
		 M17.695,1.2"/>
</g>
</svg>
