<?xml version="1.0" encoding="iso-8859-1"?>
<!-- Generator: Adobe Illustrator 19.0.1, SVG Export Plug-In . SVG Version: 6.00 Build 0)  -->
<svg version="1.1" id="Capa_1" xmlns="http://www.w3.org/2000/svg" xmlns:xlink="http://www.w3.org/1999/xlink" x="0px" y="0px"
	 viewBox="-49 202 512 390" style="enable-background:new -49 202 512 390;" xml:space="preserve">
<path style="fill:#5BB45E;" d="M463,247c0-24.72-20.128-45-45-45H-4c-24.782,0-45,20.196-45,45v300c0,24.72,20.128,45,45,45h422
	c24.72,0,45-20.128,45-45V247z M-19,253.069l144.479,143.24L-19,540.788V253.069z M207.954,435.833L2.359,232h409.427
	L207.954,435.833z M146.783,417.43l50.657,50.222c5.864,5.814,15.327,5.795,21.167-0.046L268,418.213L411.787,562H2.213
	L146.783,417.43z M289.213,397L433,253.212v287.575L289.213,397z"/>
</svg>
