<?xml version="1.0" encoding="utf-8"?>
<!-- Generator: Adobe Illustrator 19.0.1, SVG Export Plug-In . SVG Version: 6.00 Build 0)  -->
<svg version="1.1" id="OBJECTS" xmlns="http://www.w3.org/2000/svg" xmlns:xlink="http://www.w3.org/1999/xlink" x="0px" y="0px"
	 viewBox="0 0 136.6 136.6" style="enable-background:new 0 0 136.6 136.6;" xml:space="preserve">
<style type="text/css">
	.st0{display:none;}
	.st1{display:inline;}
	.st2{fill:#7BC5F8;}
	.st3{fill:#FFFFFF;}
	.st4{display:inline;fill:#395398;}
	.st5{display:inline;fill:#FFFFFF;}
	.st6{fill:#395398;}
	.st7{display:inline;fill:url(#SVGID_1_);}
	.st8{fill:#32BA46;}
</style>
<g class="st0">
	<g class="st1">
		<path class="st2" d="M363.3,113.2c0,12.9-10.4,23.3-23.3,23.3H250c-12.9,0-23.3-10.4-23.3-23.3V23.3C226.7,10.4,237.2,0,250,0
			h89.9c12.9,0,23.3,10.4,23.3,23.3V113.2z"/>
	</g>
	<g class="st1">
		<polygon class="st3" points="342.7,30.8 342.7,30.8 342.7,30.8 		"/>
		<path class="st3" d="M339,40.5c-2.1,0.6-3.7,0.5-3.7,0.5l0.1-0.4c1.9-1.5,6.8-6.3,7.4-8.5c0.3-1-0.1-1.3-0.1-1.3l-6.2,2.6
			l-5.2,2.3l0,0c-3.6-3.8-9-6.2-15.1-6.2c-10.8,0-19.6,7.7-19.6,17.1c0,1.7,0.3,4.9,0.8,6.5c0,0.5,0-0.5,0,0c-7-0.2-15.9-3-23.8-7.1
			c-15.7-7.9-16.7-13.4-16.7-13.4c-2.5,2.6-3.7,11.3-1.2,18.1c1.6,4.3,7.1,8.2,7.1,8.2l0,0c0,0-2.5,0-5-0.8
			c-2.6-0.9-3.5-1.7-3.5-1.7c-1.5,3.7,1.5,10.4,6.8,15.2c3.1,2.8,8.7,4.5,8.7,4.5l-8.8,0.2c-0.5,8.6,18,13.7,18,13.7l0,0
			c-5.4,4.2-11.7,6.7-18.4,6.7c-3.5,0-6.9-0.5-10.1-1.5c8.9,7.3,20.3,12.4,32.8,11.7c33-1.7,51.6-30.1,52.5-58l0,0.1
			c0,0,1.5-0.8,4.9-4.1c3.3-3.3,5.4-7.2,5.4-7.2S341.1,40,339,40.5z"/>
		<path class="st3" d="M342.7,30.8C342.8,31.3,342.7,30.8,342.7,30.8L342.7,30.8z"/>
	</g>
</g>
<g class="st0">
	<path class="st4" d="M136.6,113.2c0,12.9-10.4,23.3-23.3,23.3H23.3C10.4,136.6,0,126.1,0,113.2V23.3C0,10.5,10.4,0,23.3,0h89.9
		c12.9,0,23.3,10.4,23.3,23.3V113.2z"/>
	<path class="st5" d="M93.7,136.6V84.1h17.6l2.6-20.4H93.7v-13c0-5.9,1.6-9.9,10.1-9.9l10.8,0V22.4c-1.9-0.2-8.3-0.8-15.8-0.8
		c-15.6,0-26.3,9.5-26.3,27v15.1H55v20.4h17.6v52.4H93.7L93.7,136.6z"/>
</g>
<g>
	<path class="st6" d="M136.6,113.2c0,12.9-10.4,23.3-23.3,23.3H23.3C10.4,136.6,0,126.1,0,113.2V23.3C0,10.5,10.4,0,23.3,0h89.9
		c12.9,0,23.3,10.4,23.3,23.3V113.2z"/>
	<path class="st3" d="M93.7,136.6V84.1h17.6l2.6-20.4H93.7v-13c0-5.9,1.6-9.9,10.1-9.9l10.8,0V22.4c-1.9-0.2-8.3-0.8-15.8-0.8
		c-15.6,0-26.3,9.5-26.3,27v15.1H55v20.4h17.6v52.4H93.7L93.7,136.6z"/>
</g>
<g class="st0">
	
		<radialGradient id="SVGID_1_" cx="-181.991" cy="106.9746" r="277.6654" fx="-267.6382" fy="94.5333" gradientTransform="matrix(0.6534 -0.757 0.6147 0.5306 -128.8294 -87.55)" gradientUnits="userSpaceOnUse">
		<stop  offset="0" style="stop-color:#F9ED32"/>
		<stop  offset="6.147723e-002" style="stop-color:#F8D939"/>
		<stop  offset="0.1874" style="stop-color:#F5A54D"/>
		<stop  offset="0.365" style="stop-color:#F0536C"/>
		<stop  offset="0.4486" style="stop-color:#EE2A7B"/>
		<stop  offset="0.5994" style="stop-color:#9E2AA7"/>
		<stop  offset="0.7418" style="stop-color:#5B2ACD"/>
		<stop  offset="0.86" style="stop-color:#2A2AE8"/>
		<stop  offset="0.9496" style="stop-color:#0B2AF9"/>
		<stop  offset="1" style="stop-color:#002AFF"/>
	</radialGradient>
	<path class="st7" d="M-68.8,113.2c0,12.9-10.4,23.3-23.3,23.3H-182c-12.9,0-23.3-10.4-23.3-23.3V23.3C-205.3,10.4-194.9,0-182,0
		h89.9c12.9,0,23.3,10.4,23.3,23.3V113.2z"/>
	<g class="st1">
		<g>
			<path class="st3" d="M-115.3,122.5h-43.5c-19.3,0-35-15.7-35-35V49.1c0-19.3,15.7-35,35-35h43.5c19.3,0,35,15.7,35,35v38.3
				C-80.3,106.8-96,122.5-115.3,122.5z M-158.8,21.9c-15,0-27.2,12.2-27.2,27.2v38.3c0,15,12.2,27.2,27.2,27.2h43.5
				c15,0,27.2-12.2,27.2-27.2V49.1c0-15-12.2-27.2-27.2-27.2H-158.8z"/>
		</g>
		<g>
			<path class="st3" d="M-137,99.5c-17.2,0-31.2-14-31.2-31.2c0-17.2,14-31.2,31.2-31.2c17.2,0,31.2,14,31.2,31.2
				C-105.9,85.5-119.9,99.5-137,99.5z M-137,44.9c-12.9,0-23.4,10.5-23.4,23.4c0,12.9,10.5,23.4,23.4,23.4
				c12.9,0,23.4-10.5,23.4-23.4C-113.7,55.4-124.1,44.9-137,44.9z"/>
		</g>
		<g>
			<circle class="st3" cx="-106.4" cy="38.1" r="6.5"/>
		</g>
	</g>
</g>
<g class="st0">
	<g class="st1">
		<path class="st8" d="M585.6,113.2c0,12.9-10.4,23.3-23.3,23.3h-89.9c-12.9,0-23.3-10.4-23.3-23.3V23.3C449,10.4,459.5,0,472.4,0
			h89.9c12.9,0,23.3,10.4,23.3,23.3V113.2z"/>
	</g>
	<g class="st1">
		<g>
			<path class="st3" d="M517.3,120.6c-9.2,0-18.1-2.4-26.1-7l-20.4,7l4.2-21.6c-6.6-9-10-19.6-10-30.7c0-28.8,23.5-52.3,52.3-52.3
				c28.8,0,52.3,23.5,52.3,52.3C569.6,97.1,546.2,120.6,517.3,120.6z M492.2,105l1.6,1c7.1,4.5,15.3,6.8,23.6,6.8
				c24.5,0,44.5-20,44.5-44.5c0-24.5-20-44.5-44.5-44.5c-24.5,0-44.5,20-44.5,44.5c0,10,3.3,19.4,9.5,27.4l1.1,1.4l-2.3,11.8
				L492.2,105z"/>
		</g>
		<path class="st3" d="M490.9,48.2c0,0,3.1-5.4,5.6-5.7c2.5-0.3,5.7-0.3,6.6,1.3c0.9,1.6,4.8,11.1,4.8,11.1s0.7,1.6-0.4,3.2
			c-1,1.6-3.3,3.9-3.3,3.9s-1.3,1.6,0,3.4c1.3,1.7,3.3,4.9,7.4,9c4.1,4.1,12,7,12,7s1.1,0.2,1.8-0.6c0.7-0.7,4.6-5.6,4.6-5.6
			s1.2-1.6,3.3-0.7c2.1,0.9,11,5.4,11,5.4s1,0.4,1,2c0,1.6-0.6,5.5-2,6.8c-1.3,1.3-5.1,5.3-10.9,5.3c-5.8,0-19.5-4.7-26.8-12
			c-7.3-7.3-13.8-14.7-15.3-21.5C488.8,54,489,51,490.9,48.2z"/>
	</g>
</g>
</svg>
