<?xml version="1.0" encoding="utf-8"?>
<!-- Generator: Adobe Illustrator 19.0.1, SVG Export Plug-In . SVG Version: 6.00 Build 0)  -->
<svg version="1.1" id="Слой_1" xmlns="http://www.w3.org/2000/svg" xmlns:xlink="http://www.w3.org/1999/xlink" x="0px" y="0px"
	 viewBox="0 0 48 44" style="enable-background:new 0 0 48 44;" xml:space="preserve">
<style type="text/css">
	.st0{fill:#577CBD;}
</style>
<g>
	<path class="st0" d="M44,34.3l-7.6-3.8c-0.7-0.4-1.2-1.1-1.2-1.9v-2.7c0.2-0.2,0.4-0.5,0.6-0.8c1-1.4,1.8-3,2.4-4.6
		c1.1-0.5,1.9-1.6,1.9-2.9v-3.2c0-0.8-0.3-1.5-0.8-2.1V8c0-0.4,0.2-3.1-1.7-5.2C35.9,0.9,33.2,0,29.6,0c-3.6,0-6.3,0.9-7.9,2.8
		c-1.1,1.3-1.5,2.8-1.6,3.8c-1.4-0.7-3-1.1-4.8-1.1c-8.3,0-8.8,7.1-8.8,7.2v3.7c-0.5,0.6-0.8,1.2-0.8,1.9v2.8c0,0.9,0.4,1.7,1,2.2
		c0.7,2.5,2.3,4.4,2.9,5v2.2c0,0.6-0.3,1.2-0.9,1.5l-5.3,3.3C1.3,36.5,0,38.6,0,41v3h48v-3.2C48,38,46.5,35.5,44,34.3L44,34.3z
		 M11.2,40.6v1.8H1.6V41c0-1.7,0.9-3.3,2.5-4.2l5.3-3.3c1.1-0.6,1.7-1.7,1.7-2.9v-2.9l-0.3-0.2c0,0-2.1-2-2.8-4.8l-0.1-0.3l-0.3-0.2
		c-0.4-0.2-0.6-0.6-0.6-1.1v-2.8c0-0.3,0.2-0.6,0.5-0.9L8,17.2v-4.3c0-0.2,0.4-5.6,7.2-5.6c1.9,0,3.5,0.4,4.8,1.3v3.8
		c-0.5,0.6-0.8,1.3-0.8,2.1v3.2c0,0.2,0,0.5,0.1,0.7c0,0.1,0.1,0.2,0.1,0.3c0,0.1,0.1,0.3,0.1,0.4c0,0,0,0,0,0
		c0.2,0.4,0.5,0.8,0.9,1.1c0,0,0,0,0,0c0,0.2,0.1,0.4,0.2,0.5l0.1,0.2c0,0,0,0.1,0,0.1c0,0.1,0.1,0.2,0.1,0.3c0,0.1,0.1,0.3,0.2,0.4
		c0,0.1,0.1,0.1,0.1,0.2c0.1,0.2,0.1,0.3,0.2,0.5c0,0,0,0.1,0,0.1l0,0.1c0,0,0,0.1,0.1,0.1c0.1,0.2,0.2,0.3,0.2,0.5c0,0,0,0,0,0.1
		c0.1,0.1,0.1,0.2,0.1,0.3c0.1,0.2,0.2,0.3,0.3,0.5c0,0.1,0.1,0.1,0.1,0.2c0.1,0.2,0.2,0.4,0.3,0.5c0,0,0,0.1,0.1,0.1
		c0.2,0.3,0.4,0.5,0.5,0.7c0,0,0.1,0.1,0.1,0.1c0,0,0,0.1,0.1,0.1v2.6c0,0.8-0.4,1.5-1.1,1.9L20,31.5l-0.4,0l-0.2,0.3L15,34.3
		C12.6,35.5,11.2,38,11.2,40.6L11.2,40.6z M46.4,42.4H12.8v-1.8c0-2.1,1.1-3.9,2.9-4.9l7.1-3.9c1.2-0.7,1.9-1.9,1.9-3.3v-3.2
		l-0.2-0.2l0,0c0,0-0.1-0.1-0.1-0.2c0,0,0,0,0,0c0-0.1-0.1-0.1-0.1-0.2c0,0,0,0,0,0c-0.1-0.2-0.3-0.4-0.4-0.6c0,0,0,0,0,0
		c-0.1-0.1-0.2-0.3-0.2-0.4c0,0,0,0,0,0c-0.2-0.3-0.4-0.6-0.6-1c0,0,0,0,0,0c-0.1-0.2-0.2-0.4-0.3-0.6c0,0,0-0.1,0-0.1
		c0-0.1-0.1-0.2-0.1-0.3c0,0,0-0.1,0-0.1c0-0.1-0.1-0.2-0.1-0.3c-0.1-0.2-0.2-0.4-0.2-0.7l0-0.1c0,0,0,0,0-0.1
		c-0.1-0.3-0.1-0.5-0.2-0.8l-0.1-0.3l-0.3-0.2c-0.5-0.3-0.7-0.8-0.7-1.3v-3.2c0-0.4,0.2-0.9,0.5-1.2l0.3-0.2V7.7l0,0
		c0-0.6,0-2.3,1.3-3.8c1.3-1.5,3.6-2.3,6.7-2.3c3.1,0,5.4,0.8,6.7,2.3c1.6,1.8,1.3,4,1.3,4l0,5.1l0.3,0.2c0.3,0.3,0.5,0.7,0.5,1.2
		v3.2c0,0.7-0.5,1.3-1.1,1.5l-0.4,0.1l-0.1,0.4c-0.5,1.7-1.3,3.2-2.3,4.6c-0.2,0.3-0.5,0.6-0.7,0.9l-0.2,0.2v3.3
		c0,1.4,0.8,2.7,2.1,3.3l7.6,3.8c1.9,1,3.1,2.9,3.1,5V42.4z M46.4,42.4"/>
</g>
</svg>
