<?xml version="1.0" encoding="iso-8859-1"?>
<!-- Generator: Adobe Illustrator 19.0.1, SVG Export Plug-In . SVG Version: 6.00 Build 0)  -->
<svg version="1.1" id="&#x421;&#x43B;&#x43E;&#x439;_1"
	 xmlns="http://www.w3.org/2000/svg" xmlns:xlink="http://www.w3.org/1999/xlink" x="0px" y="0px" viewBox="0 0 158.691 242"
	 style="enable-background:new 0 0 158.691 242;" xml:space="preserve">
<g>
	<path style="fill:#5BB45E;" d="M82.344,1.266C40.246,1.266,6,35.328,6,77.199c0,37.443,26.113,86.526,48.02,121.105
		c1.41,2.23,4.375,2.898,6.617,1.492c2.242-1.402,2.918-4.352,1.504-6.581C23.676,132.491,15.602,96.61,15.602,77.199
		c0-36.602,29.941-66.384,66.742-66.384c36.804,0,66.746,29.777,66.746,66.384c0,59.445-69.836,150.073-70.543,150.982
		c-1.621,2.087-1.235,5.087,0.863,6.695c0.875,0.671,1.906,0.999,2.934,0.999c1.433,0,2.855-0.638,3.801-1.858
		c2.96-3.811,72.546-94.113,72.546-156.818C158.688,35.328,124.441,1.266,82.344,1.266L82.344,1.266z M82.344,1.266"/>
	<path style="fill:#5BB45E;" d="M82.344,52.987c2.652,0,4.801-2.137,4.801-4.775c0-2.635-2.149-4.775-4.801-4.775
		c-18.715,0-33.946,15.149-33.946,33.763c0,18.619,15.231,33.764,33.946,33.764c18.718,0,33.945-15.145,33.945-33.764
		c0-7.436-2.383-14.488-6.894-20.397c-1.602-2.099-4.614-2.51-6.727-0.917c-2.109,1.596-2.523,4.588-0.922,6.69
		c3.234,4.235,4.942,9.29,4.942,14.624c0,13.35-10.922,24.213-24.344,24.213C68.922,101.413,58,90.549,58,77.199
		C58,63.849,68.922,52.987,82.344,52.987L82.344,52.987z M82.344,52.987"/>
</g>
</svg>
