<?xml version="1.0" encoding="utf-8"?>
<!-- Generator: Adobe Illustrator 19.0.1, SVG Export Plug-In . SVG Version: 6.00 Build 0)  -->
<svg version="1.1" id="Слой_1" xmlns="http://www.w3.org/2000/svg" xmlns:xlink="http://www.w3.org/1999/xlink" x="0px" y="0px"
	 viewBox="0 0 136.6 136.6" style="enable-background:new 0 0 136.6 136.6;" xml:space="preserve">
<style type="text/css">
	.st0{fill:#81C2EC;}
	.st1{fill:#FFFFFF;}
</style>
<g>
	<g>
		<path class="st0" d="M136.8,113.2c0,12.9-10.4,23.3-23.3,23.3H23.6c-12.9,0-23.3-10.4-23.3-23.3V23.3C0.2,10.4,10.7,0,23.6,0h89.9
			c12.9,0,23.3,10.4,23.3,23.3V113.2z"/>
	</g>
	<g>
		<polygon class="st1" points="116.3,30.8 116.3,30.8 116.3,30.8 		"/>
		<path class="st1" d="M112.5,40.5c-2.1,0.6-3.7,0.5-3.7,0.5l0.1-0.4c1.9-1.5,6.8-6.3,7.4-8.5c0.3-1-0.1-1.3-0.1-1.3l-6.2,2.6
			l-5.2,2.3l0,0c-3.6-3.8-9-6.2-15.1-6.2c-10.8,0-19.6,7.7-19.6,17.1c0,1.7,0.3,4.9,0.8,6.5c0,0.5,0-0.5,0,0c-7-0.2-15.9-3-23.8-7.1
			c-15.7-7.9-16.7-13.4-16.7-13.4c-2.5,2.6-3.7,11.3-1.2,18.1c1.6,4.3,7.1,8.2,7.1,8.2l0,0c0,0-2.5,0-5-0.8
			c-2.6-0.9-3.5-1.7-3.5-1.7c-1.5,3.7,1.5,10.4,6.8,15.2c3.1,2.8,8.7,4.5,8.7,4.5l-8.8,0.2C34,84.9,52.5,90,52.5,90l0,0
			c-5.4,4.2-11.7,6.7-18.4,6.7c-3.5,0-6.9-0.5-10.1-1.5c8.9,7.3,20.3,12.4,32.8,11.7c33-1.7,51.6-30.1,52.5-58l0,0.1
			c0,0,1.5-0.8,4.9-4.1c3.3-3.3,5.4-7.2,5.4-7.2S114.6,40,112.5,40.5z"/>
		<path class="st1" d="M116.3,30.8C116.3,31.3,116.3,30.8,116.3,30.8L116.3,30.8z"/>
	</g>
</g>
</svg>
