<?xml version="1.0" encoding="utf-8"?>
<!-- Generator: Adobe Illustrator 19.0.1, SVG Export Plug-In . SVG Version: 6.00 Build 0)  -->
<svg version="1.1" id="Слой_1" xmlns="http://www.w3.org/2000/svg" xmlns:xlink="http://www.w3.org/1999/xlink" x="0px" y="0px"
	 viewBox="0 0 136.6 136.6" style="enable-background:new 0 0 136.6 136.6;" xml:space="preserve">
<style type="text/css">
	.st0{fill:#49AE4A;}
	.st1{fill:#FFFFFF;}
</style>
<g>
	<g>
		<path class="st0" d="M136.6,113.2c0,12.9-10.4,23.3-23.3,23.3H23.3C10.5,136.6,0,126.1,0,113.2V23.3C0,10.4,10.5,0,23.3,0h89.9
			c12.9,0,23.3,10.4,23.3,23.3V113.2z"/>
	</g>
	<g>
		<g>
			<path class="st1" d="M68.3,120.6c-9.2,0-18.1-2.4-26.1-7l-20.4,7L26,99c-6.6-9-10-19.6-10-30.7C16,39.5,39.5,16,68.3,16
				c28.8,0,52.3,23.5,52.3,52.3C120.6,97.1,97.1,120.6,68.3,120.6z M43.1,105l1.6,1c7.1,4.5,15.3,6.8,23.6,6.8
				c24.5,0,44.5-20,44.5-44.5c0-24.5-20-44.5-44.5-44.5c-24.5,0-44.5,20-44.5,44.5c0,10,3.3,19.4,9.5,27.4l1.1,1.4L32,108.8
				L43.1,105z"/>
		</g>
		<path class="st1" d="M41.9,48.2c0,0,3.1-5.4,5.6-5.7c2.5-0.3,5.7-0.3,6.6,1.3c0.9,1.6,4.8,11.1,4.8,11.1s0.7,1.6-0.4,3.2
			c-1,1.6-3.3,3.9-3.3,3.9s-1.3,1.6,0,3.4c1.3,1.7,3.3,4.9,7.4,9c4.1,4.1,12,7,12,7s1.1,0.2,1.8-0.6c0.7-0.7,4.6-5.6,4.6-5.6
			s1.2-1.6,3.3-0.7c2.1,0.9,11,5.4,11,5.4s1,0.4,1,2c0,1.6-0.6,5.5-2,6.8c-1.3,1.3-5.1,5.3-10.9,5.3c-5.8,0-19.5-4.7-26.8-12
			c-7.3-7.3-13.8-14.7-15.3-21.5C39.8,54,40,51,41.9,48.2z"/>
	</g>
</g>
</svg>
